<svg width="25" height="23" viewBox="0 0 25 23" fill="none" xmlns="http://www.w3.org/2000/svg">
<path d="M6.94444 19.4444C5.83333 19.4444 4.72222 18.4722 4.16667 18.0556C1.38889 16.1111 0.555556 15.4167 0 15V20.8333C0 21.6003 0.621962 22.2222 1.38889 22.2222H12.5C13.2669 22.2222 13.8889 21.6003 13.8889 20.8333V15C13.3333 15.4167 12.5 16.1111 9.72222 18.0556C9.16667 18.4722 8.05556 19.4444 6.94444 19.4444ZM12.5 11.1111H1.38889C0.621962 11.1111 0 11.7331 0 12.5V13.1944C1.11111 14.0278 0.972222 14.0278 5 16.9444C5.41667 17.2222 6.25 18.0556 6.94444 18.0556C7.63889 18.0556 8.47222 17.2222 8.88889 17.0833C12.9167 14.1667 12.7778 14.1667 13.8889 13.3333V12.5C13.8889 11.7331 13.2669 11.1111 12.5 11.1111ZM23.6111 6.94444H9.72222C8.95529 6.94444 8.33333 7.56641 8.33333 8.33333V9.72222H12.5C13.9414 9.72222 15.1298 10.8255 15.2652 12.2318L15.2778 12.2222V18.0556H23.6111C24.378 18.0556 25 17.4336 25 16.6667V8.33333C25 7.56641 24.378 6.94444 23.6111 6.94444ZM22.2222 12.5H19.4444V9.72222H22.2222V12.5ZM6.94444 8.33333C6.94444 6.80165 8.19054 5.55556 9.72222 5.55556H19.4444V1.38889C19.4444 0.621962 18.8225 0 18.0556 0H4.16667C3.39974 0 2.77778 0.621962 2.77778 1.38889V9.72222H6.94444V8.33333Z" fill="black"/>
</svg>
