<svg width="20" height="17" viewBox="0 0 20 17" fill="none" xmlns="http://www.w3.org/2000/svg">
<path d="M10.0154 8.89622L3.19297 15.7186C2.72143 16.1902 1.95893 16.1902 1.4924 15.7186L0.358675 14.5849C-0.112873 14.1133 -0.112873 13.3508 0.358675 12.8843L5.18953 8.04342L0.353661 3.20756C-0.117887 2.73601 -0.117887 1.97351 0.353661 1.50698L1.48738 0.368239C1.95893 -0.103308 2.72143 -0.103308 3.18796 0.368239L10.0103 7.19062C10.4869 7.66217 10.4869 8.42467 10.0154 8.89622ZM19.647 7.19062L12.8246 0.368239C12.353 -0.103308 11.5905 -0.103308 11.124 0.368239L9.99028 1.50196C9.51873 1.97351 9.51873 2.73601 9.99028 3.20254L14.8211 8.04342L9.98526 12.8793C9.51371 13.3508 9.51371 14.1133 9.98526 14.5799L11.119 15.7186C11.5905 16.1902 12.353 16.1902 12.8196 15.7186L19.6419 8.89622C20.1185 8.42467 20.1185 7.66217 19.647 7.19062Z" fill="#0B9673"/>
</svg>
